<?xml version="1.0" encoding="utf-8"?>
<!-- Generator: Adobe Illustrator 15.1.0, SVG Export Plug-In . SVG Version: 6.00 Build 0)  -->
<!DOCTYPE svg PUBLIC "-//W3C//DTD SVG 1.1//EN" "http://www.w3.org/Graphics/SVG/1.1/DTD/svg11.dtd">
<svg version="1.1" id="Camada_1" xmlns="http://www.w3.org/2000/svg" xmlns:xlink="http://www.w3.org/1999/xlink" x="0px" y="0px"
	 width="1060px" height="720px" viewBox="0 0 1060 720" enable-background="new 0 0 1060 720" xml:space="preserve">
<g id="Camada_2">
	<path fill="#2D2828" d="M554.298,370.918l41.573,26.288l1.752-8.85l2.754-14.054v-16.399l-1.502-21.604l-6.01-21.343l-9.016-19.782
		l-12.021-18.22l-16.029-15.617l-20.534-14.576L515.73,235.83l-19.033-7.288H470.15h-24.042l-23.541,7.288l-27.047,15.097
		l-28.049,30.713l7.012-21.863l-3.005-15.618c-15.359,10.238-40.403,68.889-40.069,68.714c-7.68,16.139-12.355,64.725-12.355,64.725
		l-26.713,25.683l25.711-3.818c0,0,26.045-7.115,25.879-7.462c16.195-2.082,35.06-15.097,35.06-15.097h-45.913l2.838-19.781
		l29.05-10.585v-1.908c0,0,0-28.631,0-31.755c0.501,12.494,12.021,29.153,12.021,29.153s33.308-8.85,32.808-8.85
		c15.527-1.041,23.04,3.905,23.04,3.905l-19.033,6.767L408.543,373c0,0,28.048-12.232,28.048-12.493
		c12.522-5.726,25.294-15.877,25.044-16.398c-10.77-4.946-18.533-14.837-18.783-14.837c3.256,3.384,27.548,10.672,27.548,10.672
		l13.523-10.672l-15.777-2.863l-16.279-4.945c0,0-21.037-9.371-20.786-9.891c-17.53-9.11-22.539-19.782-22.539-19.782l13.774,5.466
		l13.023,4.945l22.539,6.507l18.532,2.083l19.785,0.781l17.28-2.603l-8.265-4.945l-9.016-7.548l13.022-6.768l17.78-3.384
		l18.533,2.343l13.523,7.809l11.019,14.575l7.514,17.7l4.259,23.946l1.752,22.384L554.298,370.918z"/>
	<path d="M560.4,388.434l31.694,13.786c0,0-13.637,36.705-25.06,39.444c0.369,0.822,6.633-24.379,7.002-33.144
		C574.037,409.343,560.4,388.434,560.4,388.434z"/>
	<path fill="#2D2828" d="M560.488,335.624c0,0-6.035-28.51-35.876-23.014c0,0.688-25.818,2.061-21.459,39.5
		c0.334,0.343-8.719-10.648-8.719-10.648s-49.96,28.853-64.377,33.663c0,0.687-46.272,18.547-67.731,23.698
		c-0.335,1.375-65.384,18.826-83.825,17.829c0.335,0.377,49.289,64.607,60.02,69.418c-0.335,1.029,54.99,49.46,58.678,49.805
		c0.335,0.344,44.259-44.997,45.601-48.088c-1.006,2.062-17.101,32.976-17.101,32.976s21.124-11.68,37.219-26.107
		c0.671,0,43.589-35.72,43.589-35.72l-43.924,17.861l35.542-28.51l21.125-22.327l4.358-6.183l2.348-40.532l-10.729-10.304
		c0,0,10.396,6.183,22.8,3.434c0.335,0.346,13.076,0.346,20.119-17.173c0.669,0-12.072,10.991-20.119,8.586
		c-0.67,0-17.435,2.404-22.8-16.486c0.335,1.03-5.028-21.983,22.8-24.043C538.358,324.29,553.447,322.915,560.488,335.624z"/>
	<path d="M540.569,331.496c0,0,10.536,5.173,7.901,14.224c0,1.292,1.975,11.96-16.791,9.698c0,0.323,1.834,7.111,17.214,1.939
		c-0.423,0.323,6.161-2.589,6.819-11.962C556.043,345.719,553.739,331.173,540.569,331.496z"/>
	<path d="M397.024,237.972c0-0.357,36.3-31.474,65.469-34.693c0.648,0,39.864-4.649,58.015,4.649c0,0,36.3,13.592,49.264,30.043
		c1.296,1.073,19.445,18.598,25.929,28.97c0,0.357,17.178,26.108,17.826,43.276c0-1.073-19.123-33.978-19.123-33.978l-29.17-27.181
		l-24.632-14.664l-28.197-11.803l-31.438-4.292l-35.328,1.431l-24.308,7.154L397.024,237.972z"/>
	<path fill="#9F0000" d="M544.03,182.493l-9.728,10.453l-12.285,4.705l13.31,3.136h14.845l35.323-12.545l22.524-11.499
		l20.135-10.455l20.818-8.363l19.965-3.659h15.357c0,0-16.893,4.181-38.905,20.385c0.512,1.045,30.715,14.113,38.905,26.135
		c-1.023,1.568,3.583-15.681,3.583-15.681l33.275,10.977l29.179,27.442l10.751,19.079v-30.84l-10.751-25.089l-25.083-25.09
		l22.012,5.227l24.06,2.091l-20.477-28.749l-18.429-30.316L706.308,91.02l35.322-3.659h34.811l24.06,9.932l-23.036-20.908
		l-23.037-8.363l-33.786-6.272l-37.881-4.182l24.571-9.409l4.095-26.658l-12.797,9.932l-28.155,13.59l-23.548,5.228l-29.181,4.182
		l-31.738,9.408l-47.096,25.09l-19.454,17.772V86.838l6.655-17.772l-25.083,19.34l-8.191,16.204l-3.583,27.442l2.559,21.692
		l-2.559,4.182l-10.75,1.045l-13.822-4.704v4.181l11.262,15.681l19.453,12.022l18.77,2.09l16.041-2.613L544.03,182.493z"/>
	<polygon points="536.469,124.294 548.5,112.657 562.958,101.504 577.773,93.262 593.576,86.958 611.849,80.655 632.591,77.261 
		593.576,77.261 573.329,83.079 555.385,92.777 543.203,105.868 	"/>
	<polygon points="709.138,202.116 738.274,226.845 748.646,242.967 741.238,258.847 731.361,269.514 728.892,248.179 
		724.94,231.209 	"/>
	<polygon points="585.664,449.896 602.969,445.726 613.527,477.524 596.695,486.24 604.725,475.235 600.072,452.082 	"/>
	<polygon points="568.884,462.737 566.908,456.92 561.312,454.01 555.385,455.949 555.385,458.374 555.385,454.01 559.666,449.484 
		564.934,449.484 568.884,452.394 570.859,456.11 	"/>
	<polygon points="566.25,489.568 568.884,484.072 575.139,480.84 581.478,482.78 583.371,489.568 581.478,494.417 580.077,489.891 
		574.81,486.335 570.859,487.629 	"/>
	<polygon points="556.824,462.737 478.265,515.703 504.287,508.673 553.387,478.676 	"/>
	<polygon points="560.4,492.478 558.102,508.251 510.462,530.568 478.265,539.801 508.162,523.642 551.201,500.557 	"/>
	<polygon points="449.701,573.291 447.726,564.563 442.129,575.553 442.129,589.13 457.274,585.574 483.613,573.291 
		505.013,560.684 529.705,535.793 493.49,558.744 473.077,567.473 	"/>
	<polygon points="434.228,604.646 434.228,589.13 428.302,596.888 425.667,607.878 424.021,624.688 451.019,618.223 
		475.052,606.909 504.189,589.13 546.166,547.592 493.49,583.473 458.755,598.019 	"/>
	<path fill="#2D2828" d="M410.441,646.884c0,0-14.761-1.915-21.028,8.563c-0.031,0.969-17.413-42.262,23.123-73.504
		C411.532,582.396,397.604,615.922,410.441,646.884z"/>
	<path fill="#2D2828" d="M427.149,651.84c0,0,12.346,19.88,11.358,28.607c-0.494,0,32.594,0,38.027-6.303
		c-0.494-0.485-20.413,17.455-34.405,17.939c-0.659,0.485,25.515,3.395,68.974-20.122c-0.494,0.243,63.706-40.002,63.706-40.002
		s12.841-66.429,59.263-92.612c0,0.485-24.198,3.88-24.198,3.88s27.161-29.578,60.249-22.305c0.494,0.971-17.284-8.565-17.284-8.565
		s-44.94-2.748-75.065,19.88c-0.494,0.322-24.692,34.749-38.026,53.901c-0.987-0.728,19.26,0.243,31.112-9.454
		c-0.988,0.483-3.787,12.605-15.475,21.819c-1.316,0.484-25.68,23.273-61.896,34.426C491.844,633.414,427.149,651.84,427.149,651.84
		z"/>
	<path d="M405.914,661.052c0,0-12.347,0.971-11.853,24.244c0,0.485,0.494,23.759,17.285,25.214c0,0.484,12.511,3.394,12.675-24.729
		C423.692,686.267,424.68,662.507,405.914,661.052z"/>
	<path d="M455.052,380.794c0,0,37.779-17.137,41.73-21.175c0.494,0.81,15.309,42.024-10.371,69.178
		c-0.494,0.969,12.346-32.973,1.481-54.791C487.893,374.976,455.052,380.794,455.052,380.794z"/>
	<polygon points="423.198,406.492 434.557,388.714 397.024,406.492 415.791,406.492 412.827,412.279 434.557,441.403 
		439.495,435.845 	"/>
	<polygon points="384.184,409.887 353.071,419.093 379.245,422.493 377.764,428.817 413.321,465.97 416.942,462.737 	"/>
	<polygon points="339.737,423.463 394.061,481.002 389.123,490.376 328.379,441.403 332.823,432.676 305.662,426.856 	"/>
	<path d="M303.193,503.952l39.014,33.941l10.865,57.701c0,0-11.358,46.063,5.926,94.065
		C358.998,690.145,285.521,582.562,303.193,503.952z"/>
	<path d="M662.716,306.375v45.58l8.214,5.239c0,0,7.04,92.382,0,103.035c0.586,1.746,35.79,35.975,35.79,35.975
		s22.882-100.598,5.866-165.906C712,330.999,662.716,306.375,662.716,306.375z"/>
</g>
</svg>
